<?xml version="1.0" standalone="no"?>
<!DOCTYPE svg PUBLIC "-//W3C//DTD SVG 20010904//EN"
 "http://www.w3.org/TR/2001/REC-SVG-20010904/DTD/svg10.dtd">
<svg version="1.0" xmlns="http://www.w3.org/2000/svg"
 width="700.000000pt" height="700.000000pt" viewBox="0 0 700.000000 700.000000"
 preserveAspectRatio="xMidYMid meet">
<metadata>
Created by potrace 1.11, written by Peter Selinger 2001-2013
</metadata>
<g transform="translate(0.000000,700.000000) scale(0.100000,-0.100000)"
fill="#000000" stroke="none">
<path d="M2300 5080 l0 -260 465 0 465 0 0 260 0 260 -465 0 -465 0 0 -260z"/>
<path d="M3770 5080 l0 -260 465 0 465 0 0 260 0 260 -465 0 -465 0 0 -260z"/>
<path d="M3230 3500 l0 -1310 -465 0 -465 0 0 -260 0 -260 465 0 465 0 0 255
0 255 265 0 265 0 0 1315 0 1315 -265 0 -265 0 0 -1310z"/>
<path d="M3770 1930 l0 -260 465 0 465 0 0 260 0 260 -465 0 -465 0 0 -260z"/>
</g>
</svg>
